<svg width="311" height="263" viewBox="0 0 311 263" fill="none" xmlns="http://www.w3.org/2000/svg">
<path fill-rule="evenodd" clip-rule="evenodd" d="M156.935 28.038C156.713 27.6558 158.476 27.8445 160.011 27.8147C160.478 27.8147 161.009 27.7055 161.289 27.7055C162.305 27.7055 163.384 27.7948 164.581 27.7849C174.672 27.6906 186.135 27.7551 196.571 27.7849C198.666 27.7849 200.866 27.7849 202.921 27.7849C204.975 27.7849 207.006 27.641 209.026 27.641C209.72 27.641 210.345 27.7601 211.045 27.77C211.746 27.7799 212.213 27.6558 212.831 27.6608C214.325 27.6608 215.668 27.7501 217.139 27.7452C220.483 27.7452 223.921 27.6261 227.306 27.6261C229.004 27.6261 230.697 27.7104 232.372 27.7154C236.808 27.7154 241.162 27.6707 245.58 27.6707C248.562 27.6707 251.475 27.7749 254.451 27.7849C257.107 27.7849 259.874 27.7104 262.588 27.7104C268.424 27.7104 274.29 27.8395 280.097 27.8147C281.264 27.8147 282.297 27.7203 283.406 27.7154C287.959 27.6905 292.791 27.8693 297.612 27.8544C299.877 27.8544 302.188 27.8544 304.459 27.8941C306.496 27.8941 309.011 27.8246 310.517 28.2266C310.383 28.6188 309.466 28.589 308.182 28.6933C306.745 28.751 305.305 28.7427 303.869 28.6684C299.597 28.594 295.033 28.6684 288.391 28.6387C275.603 28.5543 261.321 28.5046 246.006 28.5096C244.033 28.5096 241.92 28.5443 239.656 28.5096C231.059 28.4649 221.236 28.4401 212.224 28.4649C208.226 28.4649 204.187 28.5592 200.283 28.579C195.374 28.579 189.579 28.4947 186.567 28.6188C179.814 28.5096 173.371 28.4302 167.307 28.4451C164.744 28.4451 162.847 28.5244 160.203 28.4053C159.17 28.3656 157.209 28.3358 156.935 28.038Z" fill="#E4E5E6"/>
<path fill-rule="evenodd" clip-rule="evenodd" d="M0.0512955 262.635C-0.544264 262.02 4.1598 262.162 8.25967 261.979C9.39935 261.908 10.5344 261.781 11.6604 261.597C14.3533 261.315 17.2536 261.199 20.4299 260.867C34.4555 258.955 48.2807 255.869 61.7478 251.644C75.4537 247.403 88.8263 242.223 101.763 236.145C104.283 234.949 106.821 233.654 109.358 232.359L113.139 230.442C114.39 229.802 115.573 229.097 116.764 228.433C119.198 227.071 121.545 225.693 123.867 224.34C126.189 222.987 128.382 221.484 130.643 220.123C132.222 219.16 133.742 218.462 135.338 217.516C136.762 216.603 137.815 215.632 139.162 214.735C140.802 213.639 142.381 212.626 143.952 211.614C144.729 211.099 145.532 210.617 146.291 210.07L148.605 208.409C152.135 205.753 155.786 203.154 159.152 200.207L164.331 195.899C165.194 195.202 166.005 194.413 166.834 193.666L169.294 191.416L174.266 186.958C175.871 185.422 177.468 183.887 179.03 182.334L182.129 179.263L185.089 176.092L188.041 172.929L189.517 171.351L190.933 169.691L196.569 163.174C198.364 160.933 200.168 158.7 201.981 156.45L202.896 155.313L203.759 154.151L205.485 151.843C206.65 150.307 207.807 148.771 208.937 147.244L212.243 142.52C213.357 140.943 214.462 139.366 215.471 137.705C217.301 134.775 219.209 131.803 220.883 128.682L223.473 124.041C224.284 122.472 225.087 120.895 225.889 119.334C232.852 105.866 238.453 91.7853 242.617 77.287C243.402 74.4313 243.955 71.7665 244.697 68.9855C247.806 57.1518 250.221 45.1593 251.93 33.0649C252.707 27.2538 253.38 21.3514 253.95 15.4988C254.2 12.8839 254.407 9.96174 254.692 7.19734C254.839 5.81929 254.994 4.48275 255.219 3.25413C255.37 2.13566 255.674 1.04147 256.125 0C256.41 0.298854 256.384 0.888225 256.349 1.93421C256.315 2.9802 256.202 4.37489 256.142 6.01859C256.021 9.51353 255.676 11.9625 255.141 17.126C254.563 22.6299 253.95 28.3164 253.069 34.7501C252.189 41.1838 251.041 48.3563 249.211 56.774C248.348 60.8252 247.304 64.9011 246.276 69.0436C245.249 73.186 244.058 77.3451 242.712 81.4958C240.1 90.0991 236.982 98.5527 233.373 106.815C229.603 115.456 225.294 123.87 220.469 132.011C215.374 140.43 209.795 148.57 203.759 156.392C202.145 158.418 200.453 160.543 198.709 162.693C197.846 163.789 196.931 164.86 195.982 165.947C195.032 167.035 194.083 168.13 193.108 169.268C192.132 170.405 191.252 171.418 190.268 172.472C189.284 173.526 188.291 174.581 187.281 175.643C185.262 177.752 183.294 179.96 181.127 182.035L174.689 188.403L167.878 194.579L166.152 196.131C165.565 196.63 164.961 197.111 164.365 197.601L160.775 200.531L157.193 203.462C156.002 204.441 154.733 205.321 153.507 206.251C151.021 208.069 148.587 209.929 146.11 211.697L138.601 216.761C136.435 218.28 134.139 219.65 131.877 221.052C129.616 222.455 127.354 223.883 125.076 225.253L118.171 229.163L114.718 231.106C113.57 231.728 112.388 232.301 111.266 232.899C108.331 234.36 105.293 235.937 102.203 237.406L92.9931 241.557C91.5172 242.255 90.0327 242.827 88.6085 243.408L84.5346 245.069C81.9452 246.115 79.6837 247.119 77.7849 247.808C61.6041 253.714 44.8719 258.115 27.8181 260.95C24.4174 261.473 21.4742 262.045 18.4447 262.278L13.8441 262.718C12.1759 262.896 10.4993 262.99 8.82083 263C6.05019 262.975 0.776325 263.108 0.0512955 262.635Z" fill="#E4E5E6"/>
<path d="M228.754 129.291H193.382V165.757H228.754V129.291Z" fill="#E7F6F6"/>
<path d="M193.78 129.291H195.494L196.697 165.757H193.78V129.291Z" fill="#AFE2E3"/>
<path fill-rule="evenodd" clip-rule="evenodd" d="M259.127 35.5675C258.773 35.956 258.814 35.6357 258.671 35.5675C258.63 35.5675 258.487 35.5675 258.459 35.5675C258.432 35.5675 258.384 35.3154 258.282 35.2336C257.395 34.4643 256.566 33.6305 255.801 32.7391C255.64 32.5678 255.467 32.4084 255.283 32.262C255.099 32.1189 254.827 32.0848 254.67 31.9281C254.615 31.8735 254.67 31.7099 254.67 31.6418C254.67 31.5736 254.466 31.6418 254.425 31.6418C254.384 31.6418 254.288 31.3351 254.172 31.226C253.9 30.9739 253.491 30.8171 253.259 30.5445C253.13 30.415 253.082 30.2037 252.952 30.0674C252.625 29.7062 252.23 29.4267 251.882 29.0791C251.651 28.8474 251.528 28.5203 251.303 28.2818C251.078 28.0432 250.812 27.9273 250.621 27.716C250.165 27.2662 249.831 26.6869 249.361 26.2575C249.265 26.1757 249.095 26.1757 249.006 26.0939C248.625 25.7668 248.427 25.2148 248.038 24.8535C247.857 24.6771 247.69 24.4856 247.541 24.2811C247.405 24.1039 247.118 23.9948 247.391 23.4904C247.786 23.1224 247.827 23.2178 248.025 23.2178C248.222 23.2178 248.216 23.3882 248.338 23.5791C248.597 23.9812 249.02 24.2606 249.511 24.8126C250.424 25.8895 251.487 27.0481 252.687 28.2204C252.843 28.3703 253.041 28.5067 253.205 28.6907C253.863 29.452 254.562 30.1777 255.297 30.8648C255.617 31.1647 256.013 31.4033 256.333 31.6895C256.653 31.9758 257.083 32.596 257.437 32.7187C257.827 33.3226 258.285 33.8804 258.8 34.3816C259.005 34.5725 259.223 34.6474 259.311 34.9746C259.349 35.08 259.351 35.1948 259.318 35.3017C259.285 35.4086 259.218 35.5018 259.127 35.5675Z" fill="#898E91"/>
<path fill-rule="evenodd" clip-rule="evenodd" d="M247.18 35.3156C246.791 34.9612 247.105 35.002 247.18 34.8589C247.18 34.818 247.18 34.675 247.18 34.6545C247.18 34.6341 247.432 34.5727 247.514 34.4705C248.283 33.5833 249.117 32.754 250.008 31.9896C250.179 31.8302 250.336 31.6569 250.479 31.4716C250.622 31.2876 250.663 31.015 250.813 30.8582C250.962 30.7015 251.037 30.8582 251.099 30.8582C251.16 30.8582 251.099 30.6538 251.133 30.6129C251.167 30.572 251.44 30.4766 251.549 30.3607C251.801 30.0881 251.964 29.7201 252.23 29.4543C252.36 29.318 252.578 29.2703 252.714 29.1408C253.075 28.8136 253.355 28.4183 253.695 28.0775C253.927 27.8458 254.254 27.7163 254.5 27.4914C254.745 27.2665 254.847 27.0007 255.059 26.8098C255.508 26.3532 256.094 26.0193 256.517 25.549C256.606 25.4536 256.599 25.2832 256.681 25.1946C257.008 24.8129 257.56 24.6152 257.921 24.2267C258.099 24.0466 258.29 23.8803 258.494 23.7292C258.671 23.5929 258.78 23.3067 259.291 23.5793C259.659 23.9746 259.557 24.0154 259.557 24.2131C259.557 24.4107 259.386 24.404 259.196 24.5267C258.794 24.7856 258.514 25.2082 257.962 25.6989C256.892 26.619 255.727 27.6754 254.554 28.875C254.404 29.0317 254.268 29.2294 254.084 29.3929C253.402 30.02 252.585 30.756 251.91 31.4853C251.617 31.8056 251.378 32.1668 251.092 32.5212C250.806 32.8757 250.179 33.2778 250.063 33.6254C249.455 34.0136 248.895 34.471 248.393 34.9885C248.202 35.1929 248.127 35.411 247.8 35.4996C247.691 35.5452 247.57 35.5517 247.457 35.5182C247.344 35.4846 247.246 35.4131 247.18 35.3156Z" fill="#898E91"/>
</svg>
