<svg width="158" height="148" viewBox="0 0 158 148" fill="none" xmlns="http://www.w3.org/2000/svg">
<g clip-path="url(#clip0_236_758)">
<path fill-rule="evenodd" clip-rule="evenodd" d="M130.658 68.1261C130.892 68.0766 130.781 68.4291 130.793 68.7444C130.793 68.8372 130.861 68.9423 130.867 69.0041C130.867 69.202 130.812 69.4184 130.818 69.6595C130.873 71.6814 130.818 73.9877 130.818 76.0653C130.818 76.4857 130.818 76.9248 130.818 77.339C130.818 77.7533 130.91 78.1614 130.91 78.5757C130.91 78.7179 130.836 78.8415 130.83 78.9837C130.824 79.1259 130.898 79.2187 130.898 79.3424C130.898 79.6392 130.843 79.9112 130.843 80.2018C130.843 80.8758 130.916 81.5621 130.916 82.2361C130.916 82.5761 130.867 82.9162 130.861 83.2563C130.861 84.1405 130.861 85.0123 130.861 85.8965C130.861 86.5148 130.8 87.0775 130.793 87.6773C130.787 88.277 130.836 88.7593 130.836 89.3035C130.836 90.4721 130.763 91.6469 130.775 92.8093C130.775 93.0381 130.836 93.2483 130.836 93.4709C130.836 94.386 130.744 95.3258 130.75 96.3151C130.75 96.7665 130.75 97.2302 130.75 97.6878C130.813 98.1119 130.74 98.5451 130.541 98.9244C130.302 98.9244 130.32 98.7143 130.259 98.4546C130.216 98.1697 130.216 97.88 130.259 97.5951C130.308 96.7356 130.259 95.8205 130.259 94.5035C130.314 91.9437 130.345 89.087 130.338 86.0202C130.338 85.6244 130.338 85.1978 130.338 84.7465C130.338 83.0275 130.381 81.0366 130.338 79.2558C130.338 78.4582 130.283 77.6482 130.271 76.8691C130.271 75.886 130.32 74.7235 130.271 74.1237C130.338 72.7696 130.388 71.4773 130.375 70.2593C130.336 69.7861 130.336 69.3104 130.375 68.8372C130.437 68.5713 130.474 68.1756 130.658 68.1261Z" fill="#E4E5E6"/>
<path fill-rule="evenodd" clip-rule="evenodd" d="M11.7171 129.611C11.4835 129.803 11.594 128.313 11.5817 127.021C11.5817 126.631 11.5141 126.18 11.5079 125.939C11.5079 125.085 11.5633 124.17 11.5571 123.162C11.5018 114.642 11.5571 104.972 11.5571 96.1667C11.5571 94.3922 11.5571 92.5373 11.5571 90.806C11.5571 89.0747 11.465 87.3372 11.465 85.6554C11.465 85.0371 11.5387 84.5424 11.5448 83.9488C11.551 83.3552 11.4773 82.9534 11.4773 82.4402C11.4773 81.2035 11.5325 80.0473 11.5325 78.8044C11.5325 75.9787 11.4836 73.085 11.459 70.2222C11.459 68.7939 11.4958 67.3656 11.5142 65.9496C11.5142 62.2026 11.5142 58.5298 11.5142 54.8199C11.5142 52.3034 11.5572 49.8734 11.5817 47.3321C11.5817 45.0876 11.5511 42.7566 11.5388 40.4688C11.5388 35.5532 11.5758 30.5757 11.6004 25.691C11.6004 24.7265 11.5573 23.8361 11.5388 22.8962C11.5388 19.0565 11.6311 14.9818 11.625 10.9133C11.625 8.99649 11.625 7.04881 11.625 5.13202C11.5653 3.42467 11.635 1.7152 11.8339 0.0185356C12.0736 0.136016 12.0552 0.908951 12.1166 1.991C12.1781 3.07306 12.1166 3.93252 12.1166 5.62671C12.0674 9.23768 12.1166 13.0897 12.1166 18.6979C12.1166 29.4875 12.0614 41.5385 12.0368 54.4675C12.0368 56.1308 12.0368 57.93 12.0368 59.8221C12.0368 67.0811 12.0368 75.3728 12.0368 82.9595C12.0368 86.3355 12.0859 89.761 12.1043 93.0443C12.1043 97.187 12.0551 102.078 12.1043 104.613C12.0367 110.32 11.9876 115.743 11.9999 120.887C11.9999 123.045 12.049 124.646 11.9999 126.879C11.92 127.732 11.9015 129.383 11.7171 129.611Z" fill="#E4E5E6"/>
<path fill-rule="evenodd" clip-rule="evenodd" d="M71.1048 129.618C70.8712 129.754 70.9817 128.696 70.9694 127.763C70.9694 127.478 70.9021 127.144 70.8959 126.99C70.8959 126.371 70.9513 125.753 70.9451 125.017C70.8898 118.952 70.9451 112.07 70.9451 105.8C70.9451 104.564 70.9451 103.222 70.9451 101.985C70.9451 100.748 70.8527 99.5118 70.8527 98.3185C70.8527 97.898 70.9267 97.527 70.9328 97.0818C70.939 96.6367 70.865 96.377 70.865 96.006C70.865 95.1094 70.9205 94.3056 70.9205 93.4215C70.9205 91.4119 70.8713 89.3467 70.8467 87.3125C70.8467 86.2923 70.8958 85.2782 70.9019 84.2703C70.9019 81.6054 70.9019 78.9899 70.9019 76.3374C70.9019 74.5504 70.9449 72.7944 70.9694 71.0075C70.9694 69.4122 70.9388 67.7489 70.9265 66.1228C70.9265 62.6231 71.0003 59.0925 70.9881 55.6114C70.9881 54.9251 70.9265 54.2944 70.9265 53.6266C70.9265 50.8875 71.0188 47.9875 71.0127 45.0938C71.0127 43.7335 71.0127 42.3423 71.0127 40.9758C70.9533 39.7599 71.0233 38.5411 71.2216 37.3401C71.4613 37.4205 71.4428 37.9584 71.5043 38.7437C71.5658 39.529 71.5043 40.1288 71.5043 41.3345C71.4551 43.9005 71.5043 46.6396 71.5043 50.6092C71.449 58.2887 71.4183 66.8647 71.4245 76.0653C71.4245 77.2524 71.4245 78.5386 71.4245 79.8803C71.4245 85.0433 71.3814 90.942 71.4245 96.3461C71.4245 98.7451 71.4736 101.175 71.492 103.519C71.492 106.468 71.4428 109.949 71.492 111.761C71.4244 115.817 71.3753 119.688 71.3876 123.336C71.3876 124.875 71.4367 126.013 71.3876 127.602C71.3076 128.276 71.2892 129.457 71.1048 129.618Z" fill="#E4E5E6"/>
<path fill-rule="evenodd" clip-rule="evenodd" d="M100.962 68.1261C101.195 68.0766 101.085 68.4291 101.097 68.7444C101.097 68.8372 101.165 68.9423 101.171 69.0041C101.171 69.202 101.116 69.4184 101.122 69.6595C101.177 71.6814 101.122 73.9877 101.122 76.0653C101.122 76.4857 101.122 76.9248 101.122 77.339C101.122 77.7533 101.214 78.1614 101.214 78.5757C101.214 78.7179 101.14 78.8415 101.134 78.9837C101.128 79.1259 101.202 79.2187 101.202 79.3424C101.202 79.6392 101.146 79.9112 101.146 80.2018C101.146 80.8758 101.22 81.5621 101.22 82.2361C101.22 82.5761 101.171 82.9162 101.165 83.2563C101.165 84.1405 101.165 85.0123 101.165 85.8965C101.165 86.5148 101.103 87.0775 101.097 87.6773C101.091 88.277 101.14 88.7593 101.14 89.3035C101.14 90.4721 101.067 91.6469 101.079 92.8093C101.079 93.0381 101.14 93.2483 101.14 93.4709C101.14 94.386 101.048 95.3258 101.054 96.3151C101.054 96.7665 101.054 97.2302 101.054 97.6878C101.117 98.1119 101.044 98.5451 100.845 98.9244C100.605 98.9244 100.624 98.7143 100.562 98.4546C100.52 98.1697 100.52 97.88 100.562 97.5951C100.611 96.7356 100.562 95.8205 100.562 94.5035C100.618 91.9437 100.648 89.087 100.642 86.0202C100.642 85.6244 100.642 85.1978 100.642 84.7465C100.642 83.0275 100.685 81.0366 100.642 79.2558C100.642 78.4582 100.587 77.6482 100.575 76.8691C100.575 75.886 100.624 74.7235 100.575 74.1237C100.642 72.7696 100.691 71.4773 100.679 70.2593C100.639 69.7861 100.639 69.3104 100.679 68.8372C100.759 68.5713 100.777 68.1756 100.962 68.1261Z" fill="#E4E5E6"/>
<path fill-rule="evenodd" clip-rule="evenodd" d="M41.5733 0.0185309C41.8069 -0.173147 41.6964 1.31703 41.7087 2.60932C41.7087 2.99886 41.7761 3.45023 41.7822 3.69137C41.7822 4.54465 41.7272 5.45975 41.7333 6.4676C41.7886 14.988 41.7333 24.6584 41.7333 33.4632C41.7333 35.2378 41.7333 37.0928 41.7333 38.8241C41.7333 40.5554 41.8255 42.2928 41.8255 43.9746C41.8255 44.5929 41.7518 45.0876 41.7456 45.6812C41.7395 46.2748 41.8131 46.6767 41.8131 47.1899C41.8131 48.4265 41.7579 49.5828 41.7579 50.8256C41.7579 53.6513 41.8069 56.5512 41.8315 59.4079C41.8315 60.8362 41.7947 62.2644 41.7762 63.6804C41.7762 67.4274 41.7762 71.1002 41.7762 74.8101C41.7762 77.3266 41.7333 79.7567 41.7087 82.2979C41.7087 84.5424 41.7393 86.8735 41.7516 89.1612C41.7516 94.1078 41.7147 99.0543 41.6901 103.939C41.6901 104.904 41.7332 105.794 41.7516 106.734C41.7516 110.573 41.6593 114.648 41.6655 118.717C41.6655 120.633 41.6655 122.581 41.6655 124.498C41.7252 126.205 41.6554 127.915 41.4566 129.611C41.2168 129.494 41.2353 128.721 41.1738 127.639C41.1123 126.557 41.1738 125.698 41.1738 124.003C41.223 120.392 41.1738 116.54 41.1738 110.932C41.1738 100.143 41.2291 88.0915 41.2536 75.1625C41.2536 73.4993 41.2536 71.7 41.2536 69.8079C41.2536 62.5489 41.2536 54.2573 41.2536 46.6706C41.2536 43.2945 41.2046 39.869 41.1861 36.5858C41.1861 32.4431 41.2353 27.5522 41.1861 25.0171C41.2537 19.31 41.3029 13.8874 41.2906 8.74916C41.2906 6.58505 41.2414 4.98364 41.2906 2.75152C41.3705 1.89824 41.3889 0.247308 41.5733 0.0185309Z" fill="#E4E5E6"/>
<path fill-rule="evenodd" clip-rule="evenodd" d="M104.557 68.5094C105.787 68.5094 107.133 68.5589 108.245 68.5466C108.743 68.5466 109.297 68.4847 109.807 68.4723C111.885 68.4228 114.386 68.4167 116.649 68.3981C121.185 68.3548 125.771 68.5775 129.742 68.5836C129.939 68.5736 130.134 68.5488 130.326 68.5094C130.222 68.3672 130.677 68.3301 130.523 68.1755C128.396 67.786 125.162 67.8602 121.529 67.8417C115.837 67.8108 110.391 67.8417 105.51 67.9159C101.699 67.9839 98.1332 67.7984 94.9551 67.9529V68.3611C97.4816 68.5775 101.281 68.5094 104.557 68.5094Z" fill="#E4E5E6"/>
<path fill-rule="evenodd" clip-rule="evenodd" d="M57.8452 68.3796C59.4558 68.3796 61.5028 68.3796 63.5191 68.3796C65.4738 68.4385 67.4301 68.3765 69.3772 68.1941C68.406 68.2312 69.0514 67.9592 68.5965 67.8973L55.8903 67.8602C55.6567 68.0024 54.7531 68.0148 55.1096 68.2683C56.0159 68.3928 56.932 68.4301 57.8452 68.3796Z" fill="#E4E5E6"/>
<path fill-rule="evenodd" clip-rule="evenodd" d="M77.7808 68.3425C79.0102 68.3425 80.3997 68.3425 81.6906 68.3425C84.672 68.2807 88.1388 68.3425 90.487 68.2683C90.5854 68.1632 90.77 68.0766 90.8745 67.9715C89.9077 67.7863 88.9265 67.687 87.9423 67.6748C87.2231 67.749 86.1472 67.7798 85.2067 67.786C81.3893 67.786 76.871 67.7118 74.0679 67.9344C74.0679 68.0581 73.736 68.1199 73.8713 68.2683C74.8671 68.5095 76.4346 68.3611 77.7808 68.3425Z" fill="#E4E5E6"/>
<path fill-rule="evenodd" clip-rule="evenodd" d="M40.6513 68.3796C43.4237 68.3796 46.9337 68.4291 48.4644 68.2313C48.7225 68.0087 48.1695 67.9406 47.8806 67.8231C45.3418 67.8231 43.4789 67.9963 41.0385 67.7489C40.1944 67.8241 39.3467 67.8489 38.4998 67.8231C38.2785 67.9406 37.6946 67.9901 37.5225 68.1199C38.0019 68.3734 39.3051 68.3796 40.6513 68.3796Z" fill="#E4E5E6"/>
<path fill-rule="evenodd" clip-rule="evenodd" d="M1.17421 68.3796C2.64954 68.4415 3.24565 68.324 4.69024 68.3054C7.44419 68.2745 11.4891 68.3735 14.2676 68.3796C15.4049 68.3796 16.8555 68.3796 17.5871 68.3796C18.2018 68.3796 19.9847 68.2189 19.9355 68.0457C19.8187 67.6686 15.7677 67.9592 14.071 67.9715C10.6778 67.8355 5.57534 67.9715 1.36451 67.7489C0.74979 67.8417 0.104502 67.9282 0 68.1199C0.381126 68.2065 1.10045 68.2312 1.17421 68.3796Z" fill="#E4E5E6"/>
<path fill-rule="evenodd" clip-rule="evenodd" d="M28.9225 68.3797C29.5372 68.2127 31.3815 68.2746 32.2483 68.1571C32.3896 67.6995 29.2423 67.6809 27.3305 67.8232C26.9125 68.1138 27.982 68.2498 28.9225 68.3797Z" fill="#E4E5E6"/>
<path d="M6.29492 6.61599H11.7967H41.4938" fill="#E4E5E6"/>
<path d="M6.29492 6.61599H11.7967H41.4938" stroke="#E4E5E6" stroke-width="0.5"/>
<path d="M6.29492 37.371H11.7967H41.4938H71.1848" fill="#E4E5E6"/>
<path d="M6.29492 37.371H11.7967H41.4938H71.1848" stroke="#E4E5E6" stroke-width="0.5"/>
<path d="M130.579 98.875H100.882H71.1848H41.4938H11.7967H6.29492" fill="#E4E5E6"/>
<path d="M130.579 98.875H100.882H71.1848H41.4938H11.7967H6.29492" stroke="#E4E5E6" stroke-width="0.5"/>
<path d="M71.1848 129.63H41.4938H11.7967H6.29492" fill="#E4E5E6"/>
<path d="M71.1848 129.63H41.4938H11.7967H6.29492" stroke="#E4E5E6" stroke-width="0.5"/>
</g>
<path fill-rule="evenodd" clip-rule="evenodd" d="M111.753 34.1931C112.266 34.0704 111.6 35.8005 111.246 37.3553C111.142 37.8287 111.13 38.3956 111.062 38.682C110.818 39.7049 110.452 40.7745 110.14 41.9844C108.772 47.7768 107.226 54.0075 105.669 60.209L105.608 60.4428L105.376 60.548L98.4178 63.6049L96.7196 64.3823L96.3043 64.581L95.9744 64.7447L95.9195 64.7856C95.8698 64.8167 95.8165 64.8422 95.7607 64.8616C95.7196 64.877 95.6763 64.8869 95.6323 64.8908H95.4247C95.3147 64.8908 95.2231 64.8908 95.1376 64.8557L94.6489 64.7506C93.4272 64.4349 92.2054 64.055 91.0692 63.6809L87.0804 62.3599L86.8361 62.2781L86.7811 62.0268C86.5856 61.1617 86.3901 60.3317 86.2069 59.5193C85.7121 57.3917 85.1196 55.3811 84.6675 53.3529C84.5148 52.6398 84.5209 51.9851 84.3743 51.2662C84.2277 50.5473 83.9773 50.0973 83.843 49.4777C83.7086 48.8581 83.5925 48.2152 83.4825 47.6131L83.7757 47.9931C83.006 47.5488 82.2608 47.1105 81.4544 46.6838L79.1332 45.468L79.8296 45.3628C78.5346 46.7481 77.2334 48.1567 75.9323 49.5537L75.3215 50.2317L74.8694 49.4133L73.6966 47.2683C72.8659 45.7311 72.1329 44.1529 71.3205 42.6274L71.5403 42.8495L71.461 42.8027L64.6072 38.9801L65.1019 39.0328L59.6593 40.7863H59.6042H59.5371L58.8774 40.8622C57.5029 41.0201 56.1285 41.1486 54.7663 41.2831L55.2428 40.9207C54.5892 42.5514 53.9295 44.1763 53.3003 45.8362C52.3169 48.4314 51.3945 51.161 50.3988 53.8088C49.7309 55.5389 49.0651 57.2748 48.4013 59.0166L48.1324 59.7239L47.5216 59.2387L41.8956 54.6505L42.0361 54.7265L39.5439 53.8439L40.0204 53.7445C39.2569 54.4634 38.5055 55.1589 37.7114 55.8428C37.4731 56.0474 37.247 56.2461 36.9966 56.4273C36.8635 56.5385 36.7205 56.6383 36.569 56.7254C36.4991 56.766 36.4228 56.7956 36.3431 56.8131H36.3064H36.2087C36.1477 56.8179 36.0864 56.8179 36.0254 56.8131H36.0681H36.1109H36.0681H35.9887C35.4756 56.9358 34.9076 57.1229 34.3395 57.2807L31.5906 58.0756L31.7311 58.0113L27.7178 60.4896L27.3208 60.7351L27.052 60.3785C25.5677 58.438 24.0588 56.4624 22.5133 54.5335L23.0815 54.6037L22.9775 54.6797C21.035 56.1292 19.0376 57.6021 17.0645 58.9991C15.3053 60.2733 13.2162 61.9566 11.6158 62.5061C11.4386 62.056 12.2266 61.5007 13.2712 60.5947C14.4561 59.6218 15.6981 58.7144 16.9912 57.8769C18.726 56.6436 20.4852 55.3343 22.4888 53.8439L22.9347 53.5107L23.283 53.9432L27.8949 59.7414L27.1253 59.6187L29.0128 58.4497L31.1141 57.1229L31.1813 57.082H31.2485C32.6535 56.6728 34.0278 56.252 35.6283 55.913C35.7411 55.8876 35.8553 55.8681 35.9704 55.8545C36.0839 55.8391 36.199 55.8391 36.3125 55.8545C36.4469 55.4804 36.1415 56.3631 36.172 56.2695V56.2052C36.157 56.1572 36.1447 56.1084 36.1353 56.0591C36.1178 55.9982 36.0933 55.9394 36.0621 55.8837C36.0621 55.8253 36.0621 55.8837 36.0621 55.8486C36.2036 55.7693 36.3384 55.6794 36.4652 55.5798C36.7706 55.346 37.0761 55.0888 37.3937 54.8199C38.0046 54.2763 38.6581 53.686 39.324 53.0664L39.5501 52.856L39.8371 52.9554L42.3293 53.838H42.4088L42.4699 53.8847L48.1203 58.4438L47.4239 58.625L54.2715 40.5349L54.3571 40.3069H54.6014L58.2665 39.8861L59.3722 39.7575H59.2927C60.9664 39.214 62.8052 38.5885 64.7355 38.0041L64.9188 37.9455L65.0836 38.0391H65.1141L71.9862 41.9377L72.0902 41.9961L72.1389 42.0897L75.7492 48.8464L75.1383 48.7704L79.115 44.6789L79.3103 44.4744L79.5609 44.6088L84.2155 47.0988L84.3621 47.1806L84.3988 47.3384C84.5882 48.1801 84.7652 48.9925 84.9485 49.7991C85.8709 53.7971 86.8116 57.836 87.7157 61.7521L87.3858 61.3897L87.5446 61.4423L91.4175 62.734C92.7247 63.1432 94.0625 63.5932 95.272 63.8504H95.4614C95.4676 63.9214 95.4798 63.9918 95.4979 64.0608C95.4918 64.0976 95.4918 64.1351 95.4979 64.1719C95.4968 64.1874 95.4968 64.2031 95.4979 64.2187C95.3635 64.0784 95.8156 64.5401 95.1986 63.9089L95.2842 63.8563L95.4492 63.751L95.5652 63.6926L95.785 63.5757L96.6464 63.1724L98.259 62.4242C99.2852 61.9566 100.189 61.53 100.916 61.1676L104.862 59.5076L104.594 59.8232C106.023 54.4342 107.361 49.3023 108.564 44.3925C109.175 41.8091 109.584 39.8685 110.397 37.2266C110.8 36.3557 111.325 34.386 111.753 34.1931Z" fill="#898E91"/>
<path fill-rule="evenodd" clip-rule="evenodd" d="M122.186 60.5709C121.766 60.7939 121.851 60.3989 121.712 60.1479C121.69 60.0643 121.513 60.0288 121.489 59.9843C121.41 59.8132 121.443 59.5798 121.327 59.387C120.494 57.6891 119.754 55.6906 119.044 53.8762C118.9 53.5112 118.735 53.1392 118.564 52.7943C118.394 52.4494 118.103 52.1565 117.96 51.817C117.926 51.6916 118.003 51.5294 117.963 51.4056C117.923 51.2818 117.756 51.2566 117.713 51.1463C117.611 50.8857 117.608 50.617 117.501 50.3639C117.25 49.7909 116.879 49.2503 116.633 48.6757C116.509 48.3825 116.471 48.0785 116.384 47.756C116.085 46.9843 115.704 46.2667 115.389 45.5058C115.179 44.992 115.099 44.4367 114.883 43.9245C114.667 43.4124 114.409 43.0272 114.218 42.5596C113.799 41.5576 113.527 40.4836 113.079 39.4957C112.995 39.3007 112.816 39.1632 112.72 38.9519C112.363 38.1768 112.223 37.2593 111.866 36.4392C111.696 36.0493 111.554 35.6452 111.419 35.2396C111.283 34.834 111.011 34.4911 111.368 34.0352C111.83 33.8714 111.864 34.0418 112.059 34.2196C112.255 34.3974 112.237 34.6139 112.34 34.9707C112.55 35.7471 112.982 36.4892 113.414 37.6546C114.233 39.8947 115.201 42.3765 116.305 45.0073C116.449 45.3467 116.64 45.6987 116.785 46.0891C117.352 47.5896 118.025 49.2921 118.71 50.8248C119.01 51.5064 119.394 52.1654 119.689 52.8291C119.974 53.6349 120.319 54.4179 120.722 55.1715C121.047 56.3271 121.443 57.4619 121.906 58.5693C122.132 58.9546 122.288 59.3769 122.367 59.8167C122.4 60.0127 122.502 60.3635 122.186 60.5709Z" fill="#898E91"/>
<path fill-rule="evenodd" clip-rule="evenodd" d="M157.006 57.3546C156.82 57.8002 156.486 57.3546 156.071 57.1195C155.948 57.0514 155.743 57.0823 155.669 57.039C155.397 56.8905 155.18 56.6182 154.865 56.4202C152.736 55.2567 150.446 53.852 148.274 52.5091L148.93 52.3791L147.692 53.951C147.302 54.4523 146.919 54.9968 146.566 55.5043C146.213 56.0117 145.947 56.6059 145.613 57.0886C145.489 57.2557 145.254 57.3175 145.118 57.4784C144.982 57.6393 145.019 57.8497 144.901 57.9921C144.815 58.1047 144.722 58.2122 144.623 58.3139L144.282 58.679L143.948 58.5367C143.684 58.4103 143.411 58.3027 143.131 58.2148C142.166 57.9364 141.132 57.7631 140.155 57.4723C139.666 57.3237 139.202 57.0762 138.719 56.9277C137.921 56.6739 137.116 56.4573 136.312 56.2346L136.126 56.185L135.99 56.0056L135.105 54.8298C134.573 54.1057 134.152 53.3198 133.632 52.5896C133.18 51.9707 132.629 51.3519 132.159 50.733L133.013 50.832L132.945 50.8877C132.165 51.5499 131.342 52.1687 130.538 52.7999L130.581 52.7628C130.049 53.2764 129.529 53.8025 129.034 54.3409C128.805 54.5946 128.663 54.904 128.415 55.1516C127.493 56.1727 126.33 57.0762 125.321 58.1468C124.857 58.648 124.362 59.1369 123.867 59.6134C123.372 60.0899 122.988 60.6716 122.307 60.6592C121.985 60.2941 122.202 60.1147 122.375 59.7496C122.548 59.3844 122.845 59.2359 123.291 58.8275C124.238 57.9487 125.11 56.8782 126.521 55.4548L129.826 52.0944L132.301 50.0894L132.654 49.7986L132.92 50.1637L135.81 54.1367L136.788 55.4115L136.559 55.2505L136.856 55.3434C139.146 56.086 141.745 56.8967 144.183 57.6084L143.769 57.7445L144.128 57.2556C144.833 56.2778 145.483 55.2444 146.17 54.2852C146.789 53.4436 147.513 52.54 148.026 51.8098L148.286 51.4508L148.682 51.6798C148.98 51.8529 149.288 52.0079 149.604 52.1439C151.288 53.3012 152.903 54.3842 154.493 55.3063C155.138 55.6203 155.746 56.0042 156.307 56.4511C156.641 56.6616 157.13 56.9957 157.006 57.3546Z" fill="#898E91"/>
<circle cx="26.3898" cy="133.2" r="14.8" fill="#F9E3F2"/>
<path d="M26.3898 148C34.5637 148 41.1898 141.374 41.1898 133.2H11.5898C11.5898 141.374 18.216 148 26.3898 148Z" fill="#F4CBE7"/>
<defs>
<clipPath id="clip0_236_758">
<rect width="130.923" height="129.785" fill="white"/>
</clipPath>
</defs>
</svg>
